<?xml version="1.0" encoding="utf-8"?>
<!-- Generator: Adobe Illustrator 27.0.0, SVG Export Plug-In . SVG Version: 6.00 Build 0)  -->
<svg version="1.1" id="Layer_1" xmlns="http://www.w3.org/2000/svg" xmlns:xlink="http://www.w3.org/1999/xlink" x="0px" y="0px"
	 viewBox="0 0 12 12" style="enable-background:new 0 0 12 12;" xml:space="preserve">
<style type="text/css">
	.st0{fill:#FFFFFF;}
</style>
<path class="st0" d="M2,10.5c-0.3,0-0.5-0.1-0.7-0.3C1.1,10,1,9.8,1,9.5V4c0-0.3,0.1-0.5,0.3-0.7S1.7,3,2,3h2V2
	c0-0.3,0.1-0.5,0.3-0.7S4.7,1,5,1h2c0.3,0,0.5,0.1,0.7,0.3S8,1.7,8,2v1h2c0.3,0,0.5,0.1,0.7,0.3C10.9,3.5,11,3.7,11,4v5.5
	c0,0.3-0.1,0.5-0.3,0.7c-0.2,0.2-0.4,0.3-0.7,0.3H2z M5,3h2V2H5V3z M10,7.5H7.5v1h-3v-1H2v2h8V7.5z M5.5,7.5h1v-1h-1V7.5z M2,6.5
	h2.5v-1h3v1H10V4H2V6.5z"/>
</svg>
