<?xml version="1.0" encoding="utf-8"?>
<!-- Generator: Adobe Illustrator 27.0.0, SVG Export Plug-In . SVG Version: 6.00 Build 0)  -->
<svg version="1.1" id="Layer_1" xmlns="http://www.w3.org/2000/svg" xmlns:xlink="http://www.w3.org/1999/xlink" x="0px" y="0px"
	 viewBox="0 0 12 12" style="enable-background:new 0 0 12 12;" xml:space="preserve">
<style type="text/css">
	.st0{fill:none;stroke:#FFFFFF;stroke-linecap:round;stroke-linejoin:round;stroke-miterlimit:2;}
</style>
<path class="st0" d="M5,5h2v2H5V5z M5,5L3.2,3.2 M5,3C4.8,2,4,1.4,3,1.5s-1.6,1-1.5,2C1.6,4.3,2.2,4.9,3,5 M7,5l1.8-1.8 M9,5
	c1-0.1,1.6-1,1.5-2s-1-1.6-2-1.5C7.7,1.6,7.1,2.2,7,3 M7,7l1.8,1.8 M7,9c0.1,1,1,1.6,2,1.5s1.6-1,1.5-2C10.4,7.7,9.8,7.1,9,7 M5,7
	L3.2,8.8 M3,7C2,7.2,1.4,8,1.5,9s1,1.6,2,1.5C4.3,10.4,4.9,9.8,5,9"/>
</svg>
