<?xml version="1.0" encoding="utf-8"?>
<!-- Generator: Adobe Illustrator 27.0.0, SVG Export Plug-In . SVG Version: 6.00 Build 0)  -->
<svg version="1.1" id="Layer_1" xmlns="http://www.w3.org/2000/svg" xmlns:xlink="http://www.w3.org/1999/xlink" x="0px" y="0px"
	 viewBox="0 0 12 12" style="enable-background:new 0 0 12 12;" xml:space="preserve">
<style type="text/css">
	.st0{fill:#FFFFFF;}
</style>
<path class="st0" d="M6,2C3.8,2,1.9,2.8,0.4,4.1c-0.2,0.2-0.2,0.5,0,0.7l5.3,5.3c0.2,0.2,0.5,0.2,0.7,0l5.3-5.3
	c0.2-0.2,0.2-0.5,0-0.7C10.1,2.8,8.1,2,6,2z M1.5,4.5C2.8,3.5,4.3,3,6,3s3.2,0.5,4.5,1.5L9.1,6C8.2,5.3,7.1,5,6,5
	C4.8,5,3.8,5.4,2.9,6L1.5,4.5z"/>
</svg>
