<?xml version="1.0" encoding="utf-8"?>
<!-- Generator: Adobe Illustrator 27.0.0, SVG Export Plug-In . SVG Version: 6.00 Build 0)  -->
<svg version="1.1" id="Layer_1" xmlns="http://www.w3.org/2000/svg" xmlns:xlink="http://www.w3.org/1999/xlink" x="0px" y="0px"
	 viewBox="0 0 12 12" style="enable-background:new 0 0 12 12;" xml:space="preserve">
<style type="text/css">
	.st0{fill:#FFFFFF;}
</style>
<path class="st0" d="M10.2,4.1c0.1-0.8,0.3-1.5,0.7-2.2L9.3,0.4C8.8,0.8,8.2,1,7.6,1.1C7,1.1,6.4,1,5.9,0.7C5.3,1,4.7,1.1,4.1,1.1
	C3.5,1,3,0.8,2.5,0.4L0.9,2c0.4,0.7,0.6,1.4,0.7,2.1c0,0.3-0.1,0.8-0.3,1.4C1.1,5.8,1,6.1,0.9,6.4C0.9,6.6,0.9,6.8,0.8,7
	c0,0.6,0.2,1.2,0.6,1.7C1.7,9.1,2.2,9.5,2.9,10c0.8,0.4,1.3,0.6,1.8,0.7L5,10.8c0.1,0,0.2,0.1,0.3,0.1c0.3,0.1,0.4,0.3,0.5,0.5
	C6,11.3,6.2,11.1,6.4,11c0.1-0.1,0.3-0.1,0.4-0.2l0.3-0.1c0.1,0,0.2-0.1,0.3-0.1c0.2-0.1,0.3-0.1,0.5-0.2c0.4-0.1,0.7-0.3,0.9-0.4
	c0.7-0.5,1.2-0.9,1.5-1.2c0.4-0.5,0.6-1.1,0.6-1.8c0-0.3-0.2-0.8-0.4-1.4C10.3,4.9,10.2,4.5,10.2,4.1z"/>
</svg>
